<svg version="1.1" xmlns="http://www.w3.org/2000/svg" xmlns:xlink="http://www.w3.org/1999/xlink" x="0px" y="0px" viewBox="0 0 704 192" enable-background="new 0 0 704 192" xml:space="preserve">
    <path fill="#D6D6D6" d="M84,52c0-16.1,19-28.4-24-52H12c0,0,0,28.6,0,44c0,36.9,28,24.6,28,40s0,60,0,60h8v-36c0,0,14.2,0,20,0c5.8,0,32,0.9,32-20C100,72.7,84,64.1,84,52z M68,100c-6,0-20,0-20,0s0-13.3,0-24c0-15.5-12-14.2-12-28c0-8.9,0-28,0-28s10.8,0,24,0c25,12.1,16,19.9,16,36c0,10.8,12,19.2,12,32C88,100.8,74,100,68,100z"/>
    <path fill="#D6D6D6" d="M216,160c-39.2,0-21.4-48.5-40-56c0,0,24,2,24-24c0-30-11.1-23.6-24-32c-12.7-8.3-16-28-16-28h-52c0,0,0,32.6,0,44s24,12,24,24v56h8v-40c0,0,12.2,0,20,0c11.8,0,16,12,16,20s0,32,0,32c36,0,44.8,21,52,32h24C252,188,245,160,216,160z M172,96c-9.5,0-32,0-32,0s0,3.2,0-8c0-20.6-12-26.9-12-52l16,0c7.6,11.1,15.3,12.7,28,20c12.6,7.2,16,9.2,16,24C188,94.8,181.5,96,172,96z"/>
    <path fill="#D6D6D6" d="M220,48h64v20h-28c0,31.8,44,29,44,112c8.2,0,24,0,24,0v8h-60v-8h28c0-47.7-48-47.5-48-124h-24V48z"/>
    <path fill="#D6D6D6" d="M360,188h-16c0-34.6-36-53.1-36-92c0-13.7,8-35.4,8-48c11.2,0.1,32,0,32,0c0,36.4-4.9,51.1,4,68c3.5-15,11-47.7,24-68h20v96h-8V56h-4c-18,27-24,60.5-24,88h-12c-33.4-46-8-47.6-8-80h-12c-5.7,7.4-12,17-12,32C316,127.7,360,154.6,360,188z"/>
    <polygon fill="#D6D6D6" points="412,48 412,56 436,56 436,132 412,132 412,144 468,144 468,136 444,136 444,56 468,56 468,48 "/>
    <rect x="488" y="128" fill="#D6D6D6" width="16" height="16"/>
    <path fill="#D6D6D6" d="M516.1,48v8c25.9,0,37.7-6.9,56-20c0,39.1-44,25.4-44,108h12c0-46.6,44-42,44-72V36h32V24h-52C552.2,37.8,540.6,48,516.1,48z"/>
    <path fill="#D6D6D6" d="M612.1,124c22.6-44,28-72.3,28-100h-16c0,25.1-3.4,59.4-32,120h20c24.6-44.6,88-61.3,88-120h-8c0,37.1-31.7,43.1-72,100H612.1z"/>
    <rect x="0" y="136" fill="#D6D6D6" width="88" height="8"/>
</svg>